<svg width="149" height="134" viewBox="0 0 149 134" fill="none" xmlns="http://www.w3.org/2000/svg">
<path d="M15.5 96.5C21.9 90.9 24.5 82.1667 25 78.5C31.6667 80.5 46.5 84.5 46.5 84.5C34 95 20.3333 96.3333 15.5 96.5Z" fill="#FFE1D1"/>
<path d="M109 43C109 66.7482 84.5995 86 54.5 86C24.4005 86 0 66.7482 0 43C0 19.2518 24.4005 0 54.5 0C84.5995 0 109 19.2518 109 43Z" fill="#FFE1D1"/>
<path d="M148 87C148 110.196 129.196 129 106 129C82.804 129 64 110.196 64 87C64 63.804 82.804 45 106 45C129.196 45 148 63.804 148 87Z" fill="#AFFFD8"/>
<path d="M148.5 133.5C141.3 126.3 138.833 116.833 138.5 113C130.667 114.167 116.8 118 124 124C132.4 131.2 143.833 133.333 148.5 133.5Z" fill="#AFFFD8"/>
<g filter="url(#filter0_d_5970_943)">
<path d="M96.08 101.64C93.28 101.64 90.9067 101.293 88.96 100.6C87.0133 99.9067 85.5333 98.9467 84.52 97.72C83.5067 96.4933 83 95.08 83 93.48C83 92.7067 83.1467 91.9733 83.44 91.28C83.76 90.5867 84.28 89.9867 85 89.48C85.3733 89.2133 85.8267 89 86.36 88.84C86.8933 88.6533 87.5333 88.52 88.28 88.44C89.0533 88.36 89.9867 88.32 91.08 88.32H122L121.96 92.56H91.52C91.0933 92.56 90.72 92.5733 90.4 92.6C90.1067 92.6267 89.8667 92.68 89.68 92.76C89.4933 92.8133 89.3333 92.8933 89.2 93C88.9067 93.2933 88.76 93.64 88.76 94.04C88.76 95.0267 89.4 95.8267 90.68 96.44C91.96 97.0533 93.9867 97.36 96.76 97.36H97.24C99.9333 97.36 102.213 97.0533 104.08 96.44C105.947 95.8267 107.453 94.9867 108.6 93.92C109.773 92.8533 110.64 91.6667 111.2 90.36L111.32 89.24C111.453 88.7333 111.533 88.2267 111.56 87.72C111.613 87.1867 111.64 86.6933 111.64 86.24C111.64 84.7467 111.427 83.3733 111 82.12C110.573 80.84 109.88 79.7733 108.92 78.92C107.987 78.04 106.747 77.4667 105.2 77.2C104.907 77.1467 104.587 77.12 104.24 77.12C103.92 77.0933 103.613 77.08 103.32 77.08C102.573 77.08 101.88 77.1733 101.24 77.36C100.6 77.52 100.08 77.8133 99.68 78.24C99.28 78.6667 99.08 79.28 99.08 80.08C99.08 80.9067 99.3067 81.56 99.76 82.04C100.213 82.52 100.853 82.76 101.68 82.76C102.373 82.76 102.973 82.5467 103.48 82.12C103.987 81.6667 104.24 80.8533 104.24 79.68C104.24 78.6667 104 77.7467 103.52 76.92C103.067 76.0667 102.547 75.28 101.96 74.56L106.16 73.92C106.613 74.32 107.04 74.8133 107.44 75.4C107.867 75.9867 108.213 76.68 108.48 77.48C108.773 78.2533 108.92 79.1733 108.92 80.24C108.92 81.1733 108.773 82.04 108.48 82.84C108.213 83.64 107.773 84.3467 107.16 84.96C106.573 85.5733 105.8 86.0533 104.84 86.4C103.88 86.72 102.707 86.88 101.32 86.88C99.96 86.88 98.6933 86.64 97.52 86.16C96.3733 85.68 95.44 84.96 94.72 84C94.0267 83.0133 93.68 81.7867 93.68 80.32C93.68 78.6133 94.1067 77.2267 94.96 76.16C95.84 75.0933 97.0133 74.3067 98.48 73.8C99.9467 73.2933 101.6 73.04 103.44 73.04C105.813 73.04 107.867 73.4 109.6 74.12C111.333 74.84 112.773 75.8267 113.92 77.08C115.093 78.3067 115.96 79.7067 116.52 81.28C117.08 82.8267 117.36 84.44 117.36 86.12C117.36 86.7067 117.32 87.28 117.24 87.84C117.187 88.3733 117.107 88.9067 117 89.44V90.88C116.2 93.12 114.867 95.04 113 96.64C111.133 98.24 108.827 99.4667 106.08 100.32C103.333 101.2 100.24 101.64 96.8 101.64H96.08ZM121.64 102.16V73.52H127.6V102.16H121.64Z" fill="#0D4027"/>
</g>
<g filter="url(#filter1_d_5970_943)">
<path d="M37 55L46.08 30.24C46.5333 29.0133 47.28 28.0933 48.32 27.48C49.36 26.84 50.5333 26.52 51.84 26.52C53.1467 26.52 54.32 26.8267 55.36 27.44C56.4 28.0267 57.1467 28.9467 57.6 30.2L66.72 55H59.48L57.72 49.6H45.84L44 55H37ZM47.56 44.04H56L52.44 32.88C52.3867 32.72 52.3067 32.6133 52.2 32.56C52.12 32.48 52.0133 32.44 51.88 32.44C51.7467 32.44 51.6267 32.48 51.52 32.56C51.44 32.64 51.3867 32.7467 51.36 32.88L47.56 44.04Z" fill="#602606"/>
</g>
<defs>
<filter id="filter0_d_5970_943" x="83" y="73.04" width="47.6001" height="31.12" filterUnits="userSpaceOnUse" color-interpolation-filters="sRGB">
<feFlood flood-opacity="0" result="BackgroundImageFix"/>
<feColorMatrix in="SourceAlpha" type="matrix" values="0 0 0 0 0 0 0 0 0 0 0 0 0 0 0 0 0 0 127 0" result="hardAlpha"/>
<feOffset dx="3" dy="2"/>
<feComposite in2="hardAlpha" operator="out"/>
<feColorMatrix type="matrix" values="0 0 0 0 1 0 0 0 0 1 0 0 0 0 1 0 0 0 1 0"/>
<feBlend mode="normal" in2="BackgroundImageFix" result="effect1_dropShadow_5970_943"/>
<feBlend mode="normal" in="SourceGraphic" in2="effect1_dropShadow_5970_943" result="shape"/>
</filter>
<filter id="filter1_d_5970_943" x="37" y="26.52" width="32.72" height="30.48" filterUnits="userSpaceOnUse" color-interpolation-filters="sRGB">
<feFlood flood-opacity="0" result="BackgroundImageFix"/>
<feColorMatrix in="SourceAlpha" type="matrix" values="0 0 0 0 0 0 0 0 0 0 0 0 0 0 0 0 0 0 127 0" result="hardAlpha"/>
<feOffset dx="3" dy="2"/>
<feComposite in2="hardAlpha" operator="out"/>
<feColorMatrix type="matrix" values="0 0 0 0 1 0 0 0 0 1 0 0 0 0 1 0 0 0 1 0"/>
<feBlend mode="normal" in2="BackgroundImageFix" result="effect1_dropShadow_5970_943"/>
<feBlend mode="normal" in="SourceGraphic" in2="effect1_dropShadow_5970_943" result="shape"/>
</filter>
</defs>
</svg>
